<?xml version="1.0" encoding="utf-8"?>

<svg version="1.1" id="Icons" xmlns="http://www.w3.org/2000/svg" xmlns:xlink="http://www.w3.org/1999/xlink" x="0px" y="0px"
	 viewBox="0 0 32 32" style="enable-background:new 0 0 32 32;" xml:space="preserve">
<style type="text/css">
	.st0{fill:#FFFFFF;}
	.st1{fill:#3A559F;}
	.st2{fill:#F4F4F4;}
	.st3{fill:#FF0084;}
	.st4{fill:#0063DB;}
	.st5{fill:#00ACED;}
	.st6{fill:#FFEC06;}
	.st7{fill:#FF0000;}
	.st8{fill:#25D366;}
	.st9{fill:#0088FF;}
	.st10{fill:#314358;}
	.st11{fill:#EE6996;}
	.st12{fill:#01AEF3;}
	.st13{fill:#FFFEFF;}
	.st14{fill:#F06A35;}
	.st15{fill:#00ADEF;}
	.st16{fill:#1769FF;}
	.st17{fill:#1AB7EA;}
	.st18{fill:#6001D1;}
	.st19{fill:#E41214;}
	.st20{fill:#05CE78;}
	.st21{fill:#7B519C;}
	.st22{fill:#FF4500;}
	.st23{fill:#00F076;}
	.st24{fill:#FFC900;}
	.st25{fill:#00D6FF;}
	.st26{fill:#FF3A44;}
	.st27{fill:#FF6A36;}
	.st28{fill:#0061FE;}
	.st29{fill:#F7981C;}
	.st30{fill:#EE1B22;}
	.st31{fill:#EF3561;}
	.st32{fill:none;stroke:#FFFFFF;stroke-width:2;stroke-miterlimit:10;}
	.st33{fill:#0097D3;}
	.st34{fill:#01308A;}
	.st35{fill:#019CDE;}
	.st36{fill:#FFD049;}
	.st37{fill:#16A05D;}
	.st38{fill:#4486F4;}
	.st39{fill:none;}
	.st40{fill:#34A853;}
	.st41{fill:#4285F4;}
	.st42{fill:#FBBC05;}
	.st43{fill:#EA4335;}
</style>
<path class="st36" d="M19.6,19h11L21.9,2.5C21.7,2.2,21.4,2,21,2h-8.8c-0.4,0-0.7,0.2-0.9,0.5c-0.2,0.3-0.2,0.7,0,1L19.6,19z"/>
<path class="st37" d="M9.7,5.1L0.2,20.2c-0.2,0.3-0.2,0.6-0.1,0.9l3.8,8.3C4,29.7,4.3,30,4.7,30c0,0,0,0,0.1,0
	c0.3,0,0.7-0.2,0.8-0.5l9.3-14.7L9.7,5.1z"/>
<g>
	<path d="M3.8,29c0,0.2,0,0.3,0.1,0.5c0.1,0.1,0.1,0.2,0.2,0.3L3.8,29z"/>
	<path class="st38" d="M31.9,21.5C31.7,21.2,31.4,21,31,21H13.3l-5.7,9h19.7c0.4,0,0.7-0.2,0.9-0.5l3.8-7C32,22.2,32,21.8,31.9,21.5
		z"/>
</g>
</svg>
