<!DOCTYPE svg PUBLIC "-//W3C//DTD SVG 1.1//EN" "http://www.w3.org/Graphics/SVG/1.1/DTD/svg11.dtd">
<!-- Uploaded to: SVG Repo, www.svgrepo.com, Transformed by: SVG Repo Mixer Tools -->
<svg height="201px" width="201px" version="1.1" id="_x32_" xmlns="http://www.w3.org/2000/svg" xmlns:xlink="http://www.w3.org/1999/xlink" viewBox="-51.2 -51.2 614.40 614.40" xml:space="preserve" fill="#1f651a" stroke="#1f651a">
<g id="SVGRepo_bgCarrier" stroke-width="0">
<path transform="translate(-51.2, -51.2), scale(38.4)" fill="#eef6f1" d="M9.166.33a2.25 2.25 0 00-2.332 0l-5.25 3.182A2.25 2.25 0 00.5 5.436v5.128a2.25 2.25 0 001.084 1.924l5.25 3.182a2.25 2.25 0 002.332 0l5.25-3.182a2.25 2.25 0 001.084-1.924V5.436a2.25 2.25 0 00-1.084-1.924L9.166.33z" strokewidth="0"/>
</g>
<g id="SVGRepo_tracerCarrier" stroke-linecap="round" stroke-linejoin="round"/>
<g id="SVGRepo_iconCarrier"> <style type="text/css"> .st0{fill:#1aad46;} </style> <g> <path class="st0" d="M241.182,278.612c0.476,0.76,0.992,1.488,1.852,2.247c0.435,0.374,0.972,0.759,1.67,1.073 c0.688,0.314,1.559,0.537,2.47,0.526c1.315,0.01,2.551-0.476,3.36-1.042c0.779-0.527,1.275-1.094,1.67-1.589 c0.709-0.951,1.094-1.782,1.457-2.652c0.608-1.498,1.083-3.108,1.59-4.949c0.759-2.733,1.549-5.911,2.54-9.231 c0.152-0.507,0.334-1.013,0.496-1.539c-7.156-1.133-14.98-2.105-23.512-2.823c0.617,4.048,1.791,8.897,3.866,14.443 C239.502,275.383,240.251,277.104,241.182,278.612z"/> <path class="st0" d="M205.068,276.699c0.607,0.79,1.296,1.569,2.307,2.288c0.516,0.365,1.113,0.709,1.832,0.972 c0.718,0.263,1.559,0.425,2.419,0.425c1.406,0,2.774-0.486,3.724-1.094c0.911-0.586,1.529-1.224,2.025-1.831 c0.89-1.144,1.396-2.196,1.872-3.3c0.79-1.912,1.376-3.998,1.984-6.356c0.78-3.006,1.548-6.427,2.419-9.949 c-8.148-0.456-16.852-0.709-26.205-0.709c-0.081,0-0.162-0.01-0.253-0.01c0.982,4.018,2.47,8.635,4.727,13.817 C202.952,273.288,203.883,275.099,205.068,276.699z"/> <path class="st0" d="M230.615,306.032c-0.638,0.79-1.013,1.559-1.315,2.308c-0.304,0.759-0.517,1.518-0.689,2.318 c-0.84,3.755-1.154,7.591-1.214,11.165c-0.031,2.135,0.03,4.17,0.141,6.032c7.247-2.692,14.434-5.526,21.449-8.432 c-1.306-2.632-2.612-5.263-3.897-7.571c-1.002-1.791-1.964-3.39-3.118-4.807c-0.587-0.709-1.215-1.397-2.105-2.075 c-0.456-0.334-0.982-0.668-1.65-0.941c-0.668-0.284-1.488-0.496-2.43-0.507c-1.184-0.04-2.5,0.344-3.462,0.962 C231.596,304.939,231.04,305.486,230.615,306.032z"/> <path class="st0" d="M23.635,222.426c0.86,7.278,2.379,15.385,5.193,22.936c0.85,2.247,1.689,4.048,2.935,5.668 c0.637,0.799,1.396,1.578,2.439,2.226c1.032,0.658,2.43,1.134,3.846,1.113c1.346,0,2.581-0.404,3.512-0.92 c0.901-0.497,1.579-1.064,2.156-1.65c1.073-1.113,1.842-2.268,2.56-3.532c1.255-2.217,2.329-4.768,3.421-7.642 c1.631-4.302,3.25-9.262,4.96-14.181c0.314-0.901,0.628-1.782,0.952-2.672c-11.083-4.768-22.115-9.959-32.976-15.557 C22.734,212.082,22.997,217.021,23.635,222.426z"/> <path class="st0" d="M193.65,318.097c-0.668,0.85-1.073,1.66-1.406,2.479c-0.314,0.82-0.558,1.671-0.76,2.561 c-0.962,4.292-1.315,8.705-1.387,12.814c-0.02,1.539,0.01,2.996,0.051,4.434c2.419-0.719,4.859-1.458,7.318-2.228 c5.212-1.619,10.506-3.37,15.83-5.202c-1.417-2.865-2.834-5.709-4.231-8.198c-1.154-2.055-2.258-3.878-3.543-5.466 c-0.648-0.79-1.336-1.538-2.298-2.267c-0.476-0.344-1.032-0.698-1.731-0.992c-0.688-0.284-1.548-0.507-2.51-0.526 c-1.224-0.04-2.56,0.354-3.552,0.992C194.672,316.974,194.096,317.541,193.65,318.097z"/> <path class="st0" d="M165.168,275.667c0.606,0.628,1.305,1.235,2.216,1.741c0.911,0.506,2.115,0.931,3.492,0.931 c1.286,0.01,2.582-0.415,3.523-1.012c0.901-0.557,1.528-1.204,2.004-1.822c0.902-1.154,1.376-2.247,1.802-3.36 c0.708-1.944,1.173-4.029,1.629-6.376c0.526-2.814,0.992-5.952,1.498-9.171c-8.664-0.567-17.55-1.569-26.66-3.016 c1.285,4.838,3.501,10.911,7.328,17.652C163.021,273.005,163.962,274.411,165.168,275.667z"/> <path class="st0" d="M69.537,229.532c0.142,1.933,0.344,4.068,0.608,6.356c0.921,7.612,2.611,16.762,6.032,25.142 c0.871,2.116,1.721,3.806,2.936,5.365c0.618,0.769,1.356,1.538,2.399,2.207c1.032,0.648,2.469,1.184,3.998,1.174 c1.387,0,2.682-0.425,3.634-0.983c0.901-0.516,1.569-1.123,2.105-1.7c1.012-1.104,1.65-2.196,2.236-3.351 c1.013-1.993,1.833-4.231,2.652-6.721c1.225-3.725,2.419-8.016,3.715-12.298c0.395-1.327,0.82-2.663,1.245-3.958 c-1.113-0.353-2.226-0.688-3.34-1.052C88.424,236.698,78.98,233.267,69.537,229.532z"/> <path class="st0" d="M66.632,316.893c-1.194-0.021-2.298,0.304-3.167,0.739c-1.327,0.648-2.258,1.517-3.128,2.46 c-0.86,0.961-1.65,2.064-2.46,3.35c-4.868,7.844-8.107,16.832-10.284,24.312c1.65,0.304,3.411,0.628,5.293,0.952 c6.63,1.134,15.375,2.409,25.801,3.432c-0.293-1.731-0.556-3.513-0.81-5.314c-0.87-6.266-1.548-12.693-2.54-17.856 c-0.516-2.611-1.063-4.878-1.994-6.964c-0.486-1.052-1.064-2.084-2.085-3.107c-0.506-0.506-1.154-1.002-1.954-1.387 C68.515,317.146,67.564,316.902,66.632,316.893z"/> <path class="st0" d="M119.559,277.387c0.627,0.709,1.356,1.397,2.348,1.974c0.982,0.576,2.298,1.012,3.684,1.002 c1.376,0,2.682-0.436,3.634-1.013c0.911-0.546,1.578-1.174,2.116-1.782c0.992-1.154,1.619-2.307,2.206-3.543 c0.992-2.126,1.761-4.534,2.54-7.226c1.143-4.029,2.237-8.665,3.401-13.25c0.223-0.88,0.465-1.74,0.698-2.6 c-9.95-2.045-20.122-4.556-30.497-7.582c0.172,2.521,0.456,5.375,0.922,8.462c0.971,6.386,2.692,13.675,5.921,20.629 C117.444,274.402,118.324,275.97,119.559,277.387z"/> <path class="st0" d="M152.333,325.699c-0.668,1.012-1.164,2.075-1.63,3.269c-2.206,5.739-3.42,11.862-4.159,17.369 c-0.212,1.6-0.365,3.118-0.496,4.586c2.399-0.416,4.838-0.851,7.329-1.346c6.204-1.215,12.682-2.693,19.383-4.403 c-1.327-4.12-2.652-8.26-4.008-11.812c-0.962-2.51-1.913-4.716-3.107-6.66c-0.618-0.962-1.276-1.894-2.288-2.794 c-0.506-0.445-1.113-0.901-1.902-1.265c-0.77-0.375-1.741-0.638-2.784-0.658c-1.225-0.03-2.47,0.323-3.401,0.871 C153.831,323.664,152.99,324.697,152.333,325.699z"/> <path class="st0" d="M105.975,328.301c-0.79,0.971-1.417,2.044-2.035,3.258c-3.593,7.228-5.718,15.224-7.045,21.934 c4.818,0.253,9.859,0.435,15.122,0.516c0.658,0,1.266,0.01,1.873,0.01c4.11,0,8.492-0.212,13.118-0.597 c-1.447-5.709-2.874-11.681-4.484-16.59c-0.881-2.632-1.761-4.949-2.976-7.015c-0.628-1.032-1.326-2.024-2.409-2.976 c-0.537-0.466-1.185-0.931-1.994-1.285c-0.8-0.354-1.771-0.608-2.774-0.618c-1.174-0.02-2.328,0.284-3.26,0.739 C107.706,326.377,106.765,327.328,105.975,328.301z"/> <path class="st0" d="M512,247.619c-0.009-29.667-6.336-59.85-19.524-85.904c-6.6-13.026-14.93-25.022-25.062-35.325 c-10.132-10.314-22.086-18.928-35.831-25.162c-19.556-8.888-36.732-11.62-51.642-11.6c-11.012,0-20.78,1.457-29.374,2.854 c-8.583,1.406-16.012,2.712-22.278,2.693c-3.634,0-6.852-0.416-9.838-1.376c-2.986-0.962-5.79-2.46-8.695-4.91 c-3.592-3.046-7.52-5.223-11.599-6.578c-4.089-1.367-8.3-1.924-12.521-1.924c-7.622,0.01-15.314,1.752-23.3,3.978 c-7.996,2.247-16.307,5.031-25.062,7.449c-4.362,1.195-8.938,1.741-13.776,1.741c-7.47,0-15.558-1.306-24.161-3.381 c-12.916-3.086-26.944-7.854-41.874-11.922c-14.94-4.05-30.82-7.399-47.532-7.41c-12.278,0-25.002,1.842-37.937,6.508 c-7.622,2.744-15.638,6.346-23.462,11.356c-11.741,7.512-23.037,18.291-31.691,33.848c-8.685,15.556-14.738,35.78-16.569,62.178 L0,188.619l3.381,1.963c30.092,17.42,63.078,32.451,96.298,43.18c33.21,10.709,66.652,17.106,97.736,17.115 c66.53-0.009,102.908,12.399,122.332,24.14c6.114,3.685,10.558,7.308,13.786,10.507c14.029-3.452,29.829-6.073,45.892-6.083 c14.14,0,28.483,2.035,41.884,7.368c13.402,5.335,25.841,14.019,36.014,27.137l-4.94,3.846 c-9.494-12.227-20.922-20.183-33.392-25.164c-12.47-4.979-26.013-6.922-39.566-6.922c-15.556-0.01-31.063,2.591-44.86,6.012 c-19.88,6.346-40.295,13.796-56.601,21.64c-20.052,9.657-48.756,21.449-78.636,30.771c-14.93,4.676-30.163,8.725-44.739,11.59 c-14.575,2.874-28.482,4.565-40.699,4.565c-0.628,0-1.265-0.021-1.913-0.021h-0.051c-25.203-0.384-45.821-2.935-60.092-5.384 c-7.136-1.225-12.683-2.43-16.418-3.3c-1.873-0.444-3.29-0.809-4.221-1.062c-0.476-0.122-0.82-0.213-1.042-0.283l-0.253-0.072 l-0.051-0.009v-0.01l-8.249-2.43l0.223,8.604c0.02,0.304,0.324,12.956,4.423,27.754c2.066,7.399,5.072,15.364,9.646,22.632 c4.565,7.247,10.8,13.867,19.252,17.966c8.705,4.22,19.981,6.862,32.784,8.614c12.784,1.74,27.065,2.49,41.448,2.49 c24.627,0,49.496-2.206,67.583-5.79c6.225-1.234,12.359-1.741,18.514-1.741c14.929-0.02,30,3.077,45.972,6.326 c15.963,3.229,32.825,6.589,51.257,6.589c16.144,0,33.462-2.611,52.138-10.051c18.512-7.368,38.341-19.424,59.941-38.099 c16.741-8.653,31.296-16.276,42.359-23.512c5.608-3.685,10.335-7.268,14.069-11.023c1.862-1.892,3.482-3.836,4.798-5.921 c1.306-2.075,2.328-4.312,2.865-6.731c0.395-1.792,0.546-3.655,0.546-5.779c0-0.851-0.04-1.752-0.091-2.672 C504.398,312.045,511.98,280.12,512,247.619z M86.643,124.974c-10.436,10.425-2.196,15.992-12.52,21.903 c-7.308,4.171-16.692,0-15.649-9.392c0.769-6.954,14.606-23.989,29.212-29.212C105.743,101.825,96.562,115.034,86.643,124.974z M291.79,163.031c-11.478,24.091-44.748,32.128-92.948,6.883c-12.855-6.741-26.388-25.243-8.037-33.28 c18.361-8.037,48.2,0,68.858-5.739C280.312,125.155,303.269,138.922,291.79,163.031z M350.568,177.121 c-11.508,3.948-16.69,16.7-25.031,12.531c-8.351-4.18,12.51-38.604,18.776-45.912c6.255-7.298,19.818-13.564,31.298-8.341 C387.077,140.612,390.215,163.557,350.568,177.121z M452.798,201.119c-20.861,5.213-15.648,14.606-21.904,28.169 c-6.255,13.563-9.382,19.818-26.084,8.34c-13.086-8.999-28.159-21.904-13.553-37.551c14.606-15.649,36.51-36.52,51.116-34.424 C456.978,167.738,473.669,195.907,452.798,201.119z"/> </g> </g>
</svg>